<?xml version="1.0" encoding="UTF-8" standalone="no"?>
<!DOCTYPE svg PUBLIC "-//W3C//DTD SVG 1.1//EN" "http://www.w3.org/Graphics/SVG/1.1/DTD/svg11.dtd">
<svg version="1.1" xmlns="http://www.w3.org/2000/svg" xmlns:xlink="http://www.w3.org/1999/xlink" preserveAspectRatio="xMidYMid meet" viewBox="1.5624866172143896 1.9229999999999992 20.757513382785604 25.581399264848596" width="21" height="25"><defs><path d="M18.79 9.94C17.58 8.17 15.69 7.93 15.02 7.9C13.41 7.74 11.89 8.84 11.08 8.84C10.27 8.84 9.01 7.92 7.68 7.95C5.93 7.97 4.32 8.96 3.42 10.53C1.61 13.68 2.96 18.34 4.73 20.9C5.59 22.15 6.62 23.55 7.98 23.5C9.28 23.45 9.77 22.66 11.35 22.66C12.92 22.66 13.37 23.5 14.75 23.47C16.15 23.45 17.04 22.2 17.9 20.95C18.89 19.5 19.29 18.09 19.32 18.02C19.29 18.01 16.59 16.97 16.56 13.86C16.54 11.25 18.68 10 18.79 9.94Z" id="aeq8HSWSd"></path><path d="M15.04 2.92C14 2.97 12.75 3.61 12 4.48C11.34 5.25 10.76 6.49 10.91 7.67C12.07 7.76 13.25 7.08 13.97 6.21C14.69 5.34 15.17 4.13 15.04 2.92Z" id="gnc1SG1U9"></path><path d="M18.79 10.94C17.58 9.17 15.69 8.93 15.02 8.9C13.41 8.74 11.89 9.84 11.08 9.84C10.27 9.84 9.01 8.92 7.68 8.95C5.93 8.97 4.32 9.96 3.42 11.53C1.61 14.68 2.96 19.34 4.73 21.9C5.59 23.15 6.62 24.55 7.98 24.5C9.28 24.45 9.77 23.66 11.35 23.66C12.92 23.66 13.37 24.5 14.75 24.47C16.15 24.45 17.04 23.2 17.9 21.95C18.89 20.5 19.29 19.09 19.32 19.02C19.29 19.01 16.59 17.97 16.56 14.86C16.54 12.25 18.68 11 18.79 10.94Z" id="arWbdSvmE"></path><linearGradient id="gradientc3qDFwZ8Kc" gradientUnits="userSpaceOnUse" x1="10.94" y1="8.88" x2="10.94" y2="24.5"><stop style="stop-color: #f3f4f5;stop-opacity: 1" offset="0%"></stop><stop style="stop-color: #e6e7e8;stop-opacity: 1" offset="31.45%"></stop><stop style="stop-color: #c5c4c4;stop-opacity: 1" offset="90.05%"></stop><stop style="stop-color: #bfbebe;stop-opacity: 1" offset="99.39%"></stop></linearGradient><path d="M15.04 3.92C14 3.97 12.75 4.61 12 5.48C11.34 6.25 10.76 7.49 10.91 8.67C12.07 8.76 13.25 8.08 13.97 7.21C14.69 6.34 15.17 5.13 15.04 3.92Z" id="aV8XyEc3F"></path><path d="M11.35 23.66C12.92 23.66 13.37 24.5 14.74 24.48C16.15 24.45 17.04 23.2 17.89 21.95C18.33 21.31 18.65 20.69 18.87 20.18C18.12 20.17 17.27 20.16 16.6 20.16C14.94 20.16 14.29 19.83 11.18 19.83C8.06 19.83 7.49 20.25 5.95 20.36C5.24 20.42 4.48 20.42 3.86 20.41C4.13 20.96 4.42 21.46 4.73 21.9C5.59 23.15 6.62 24.56 7.97 24.5C9.28 24.45 9.77 23.66 11.35 23.66Z" id="a97EVyDVG"></path></defs><g><g><use xlink:href="#aeq8HSWSd" opacity="1" fill="#000000" fill-opacity="0.5"></use><g><use xlink:href="#aeq8HSWSd" opacity="1" fill-opacity="0" stroke="#000000" stroke-width="1" stroke-opacity="0"></use></g></g><g><use xlink:href="#gnc1SG1U9" opacity="1" fill="#000000" fill-opacity="0.5"></use><g><use xlink:href="#gnc1SG1U9" opacity="1" fill-opacity="0" stroke="#000000" stroke-width="1" stroke-opacity="0"></use></g></g><g><use xlink:href="#arWbdSvmE" opacity="1" fill="url(#gradientc3qDFwZ8Kc)"></use><g><use xlink:href="#arWbdSvmE" opacity="1" fill-opacity="0" stroke="#000000" stroke-width="1" stroke-opacity="0"></use></g></g><g><use xlink:href="#aV8XyEc3F" opacity="1" fill="#f6f7f7" fill-opacity="1"></use><g><use xlink:href="#aV8XyEc3F" opacity="1" fill-opacity="0" stroke="#000000" stroke-width="1" stroke-opacity="0"></use></g></g><g><use xlink:href="#a97EVyDVG" opacity="1" fill="#bfbebe" fill-opacity="1"></use><g><use xlink:href="#a97EVyDVG" opacity="1" fill-opacity="0" stroke="#000000" stroke-width="1" stroke-opacity="0"></use></g></g></g></svg>
